<?xml version="1.0" encoding="UTF-8" standalone="no"?>
<!DOCTYPE svg PUBLIC "-//W3C//DTD SVG 1.1//EN" "http://www.w3.org/Graphics/SVG/1.1/DTD/svg11.dtd">
<svg width="100%" height="100%" viewBox="0 0 800 800" version="1.1" xmlns="http://www.w3.org/2000/svg" xmlns:xlink="http://www.w3.org/1999/xlink" xml:space="preserve" xmlns:serif="http://www.serif.com/" style="fill-rule:evenodd;clip-rule:evenodd;stroke-linejoin:round;stroke-miterlimit:2;">
    <rect id="chh_mark_light" x="0" y="0" width="800" height="800" style="fill:none;"/>
    <g id="chh_mark_light1" serif:id="chh_mark_light">
        <g transform="matrix(1,0,0,1.02639,-50,-71.1144)">
            <path d="M450,118C643.17,118 800,270.797 800,459C800,647.203 643.17,800 450,800C256.83,800 100,647.203 100,459C100,270.797 256.83,118 450,118ZM450,147.229C626.613,147.229 770,286.929 770,459C770,631.071 626.613,770.771 450,770.771C273.387,770.771 130,631.071 130,459C130,286.929 273.387,147.229 450,147.229Z" style="fill:rgb(13,121,242);"/>
        </g>
        <g transform="matrix(0.875,0,0,0.898094,6.25,-12.2251)">
            <path d="M450,118C643.17,118 800,270.797 800,459C800,647.203 643.17,800 450,800C256.83,800 100,647.203 100,459C100,270.797 256.83,118 450,118ZM450,151.404C624.247,151.404 765.714,289.233 765.714,459C765.714,628.767 624.247,766.596 450,766.596C275.753,766.596 134.286,628.767 134.286,459C134.286,289.233 275.753,151.404 450,151.404Z" style="fill:rgb(13,121,242);"/>
        </g>
        <g transform="matrix(0.353808,0,0,0.353808,195.509,225.742)">
            <path d="M575,109.441C739.829,109.441 703.994,166.753 771.197,167.756C780.436,167.894 802.516,168.129 824.866,153.854C941.071,79.636 1099.71,4.972 1126.79,44.993C1151.73,81.85 1132.24,190.993 1095.39,277.47C1066.81,344.555 1023.01,388.489 1011.68,435.01C999.598,484.599 1011.04,560.562 1008.05,624.826C1004.98,690.871 997.455,731.556 966.52,772.116C913.675,841.403 771.995,861.513 740.59,957.872C728.302,995.575 702.731,1098.97 671.464,1141.67C626.662,1202.87 575,1198.47 575,1198.47C575,1198.47 523.338,1202.87 478.536,1141.67C447.269,1098.97 421.698,995.575 409.41,957.872C378.005,861.513 236.325,841.403 183.48,772.116C152.545,731.556 145.02,690.871 141.948,624.826C138.959,560.562 150.402,484.599 138.32,435.01C126.985,388.489 83.193,344.555 54.607,277.47C17.757,190.993 -1.726,81.85 23.213,44.993C50.292,4.972 208.929,79.636 325.134,153.854C347.484,168.129 369.564,167.894 378.803,167.756C446.006,166.753 410.171,109.441 575,109.441Z" style="fill:rgb(0,166,61);"/>
        </g>
    </g>
</svg>
