<?xml version="1.0" encoding="UTF-8" standalone="no"?>
<!DOCTYPE svg PUBLIC "-//W3C//DTD SVG 1.1//EN" "http://www.w3.org/Graphics/SVG/1.1/DTD/svg11.dtd">
<svg width="100%" height="100%" viewBox="0 0 800 801" version="1.1" xmlns="http://www.w3.org/2000/svg" xmlns:xlink="http://www.w3.org/1999/xlink" xml:space="preserve" xmlns:serif="http://www.serif.com/" style="fill-rule:evenodd;clip-rule:evenodd;stroke-linejoin:round;stroke-miterlimit:2;">
    <g transform="matrix(1,0,0,1,-944,-1)">
        <g id="chh_mark_text_light" transform="matrix(1,0,0,1,944,1.19166)">
            <rect x="0" y="0" width="800" height="800" style="fill:none;"/>
            <g transform="matrix(1,0,0,1.02639,-50,-71.1144)">
                <path d="M450,118C643.17,118 800,270.797 800,459C800,647.203 643.17,800 450,800C256.83,800 100,647.203 100,459C100,270.797 256.83,118 450,118ZM450,147.229C626.613,147.229 770,286.929 770,459C770,631.071 626.613,770.771 450,770.771C273.387,770.771 130,631.071 130,459C130,286.929 273.387,147.229 450,147.229Z" style="fill:rgb(13,121,242);"/>
            </g>
            <g transform="matrix(0.875,0,0,0.898094,6.25,-12.2251)">
                <path d="M450,118C643.17,118 800,270.797 800,459C800,647.203 643.17,800 450,800C256.83,800 100,647.203 100,459C100,270.797 256.83,118 450,118ZM450,151.404C624.247,151.404 765.714,289.233 765.714,459C765.714,628.767 624.247,766.596 450,766.596C275.753,766.596 134.286,628.767 134.286,459C134.286,289.233 275.753,151.404 450,151.404Z" style="fill:rgb(13,121,242);"/>
            </g>
            <g transform="matrix(0.328245,0,0,0.328245,210.071,197.744)">
                <path d="M575,109.441C739.829,109.441 703.994,166.753 771.197,167.756C780.436,167.894 802.516,168.129 824.866,153.854C941.071,79.636 1099.71,4.972 1126.79,44.993C1151.73,81.85 1132.24,190.993 1095.39,277.47C1066.81,344.555 1023.01,388.489 1011.68,435.01C999.598,484.599 1011.04,560.562 1008.05,624.826C1004.98,690.871 997.455,731.556 966.52,772.116C913.675,841.403 771.995,861.513 740.59,957.872C728.302,995.575 702.731,1098.97 671.464,1141.67C626.662,1202.87 575,1198.47 575,1198.47C575,1198.47 523.338,1202.87 478.536,1141.67C447.269,1098.97 421.698,995.575 409.41,957.872C378.005,861.513 236.325,841.403 183.48,772.116C152.545,731.556 145.02,690.871 141.948,624.826C138.959,560.562 150.402,484.599 138.32,435.01C126.985,388.489 83.193,344.555 54.607,277.47C17.757,190.993 -1.726,81.85 23.213,44.993C50.292,4.972 208.929,79.636 325.134,153.854C347.484,168.129 369.564,167.894 378.803,167.756C446.006,166.753 410.171,109.441 575,109.441Z" style="fill:rgb(0,166,61);"/>
            </g>
            <g transform="matrix(0.918626,0,0,0.918626,53.6779,-783.191)">
                <path d="M130.271,1314.89L130.464,1297.45C133.353,1297.24 135.695,1296.22 137.488,1294.39C139.281,1292.57 140.197,1289.99 140.233,1286.67C140.281,1282.35 138.767,1279.02 135.69,1276.7C132.612,1274.37 128.321,1273.18 122.817,1273.12C117.003,1273.06 112.61,1274.17 109.636,1276.45C106.662,1278.74 105.152,1281.98 105.105,1286.16C105.07,1289.32 105.831,1291.84 107.387,1293.73C108.944,1295.63 111.07,1296.8 113.766,1297.27L113.448,1314.71C110.771,1314.47 108.052,1313.69 105.294,1312.36C102.536,1311.03 100,1309.16 97.686,1306.75C95.373,1304.35 93.524,1301.38 92.141,1297.86C90.757,1294.34 90.091,1290.26 90.142,1285.62C90.207,1279.81 91.512,1274.61 94.058,1270.03C96.603,1265.45 100.313,1261.86 105.188,1259.24C110.062,1256.62 116.004,1255.35 123.013,1255.43C130.064,1255.51 135.991,1256.94 140.796,1259.71C145.6,1262.49 149.218,1266.2 151.651,1270.84C154.084,1275.49 155.269,1280.66 155.206,1286.35C155.147,1291.66 154.136,1296.4 152.172,1300.55C150.208,1304.71 147.378,1308.04 143.68,1310.54C139.982,1313.05 135.512,1314.5 130.271,1314.89Z" style="fill:rgb(13,121,242);fill-rule:nonzero;"/>
                <path d="M122.658,1339.06L96.606,1345L92.814,1328.35L154.568,1314.29L158.222,1330.33L133.979,1335.85L134.089,1336.33C137.282,1336.7 139.985,1337.92 142.197,1339.97C144.41,1342.03 145.905,1344.76 146.684,1348.18C147.43,1351.46 147.335,1354.48 146.4,1357.24C145.464,1360 143.841,1362.35 141.533,1364.28C139.224,1366.21 136.379,1367.55 132.997,1368.3L103.447,1375.03L99.655,1358.38L125.708,1352.45C128.004,1351.95 129.674,1350.97 130.717,1349.52C131.76,1348.06 132.039,1346.27 131.554,1344.14C131.091,1342.11 130.067,1340.63 128.481,1339.7C126.895,1338.77 124.954,1338.56 122.658,1339.06Z" style="fill:rgb(13,121,242);fill-rule:nonzero;"/>
                <path d="M140.099,1407.49L164.247,1396.05L171.555,1411.48L128.627,1431.82L121.689,1417.17L129.85,1413.31L129.638,1412.86C126.458,1413.23 123.547,1412.61 120.907,1411.01C118.266,1409.41 116.187,1407 114.669,1403.8C113.248,1400.8 112.695,1397.85 113.01,1394.95C113.325,1392.05 114.4,1389.41 116.236,1387.02C118.071,1384.64 120.549,1382.69 123.67,1381.19L151.06,1368.22L158.368,1383.64L134.221,1395.08C132.106,1396.11 130.696,1397.44 129.993,1399.09C129.289,1400.73 129.396,1402.53 130.314,1404.46C131.223,1406.38 132.553,1407.62 134.302,1408.19C136.052,1408.75 137.984,1408.52 140.099,1407.49Z" style="fill:rgb(13,121,242);fill-rule:nonzero;"/>
                <path d="M198.727,1421.62L146.681,1457.71L136.953,1443.69L188.999,1407.59L198.727,1421.62Z" style="fill:rgb(13,121,242);fill-rule:nonzero;"/>
                <path d="M163.718,1479.71C160.6,1476.42 158.869,1472.95 158.524,1469.3C158.18,1465.65 159.723,1462.2 163.152,1458.96C165.682,1456.57 168.25,1455.2 170.856,1454.86C173.461,1454.53 176.052,1454.95 178.63,1456.15C181.208,1457.34 183.698,1459.04 186.102,1461.26C189.061,1463.96 191.32,1465.73 192.88,1466.55C194.44,1467.37 195.721,1467.31 196.724,1466.36L196.814,1466.28C197.713,1465.42 198.076,1464.43 197.903,1463.29C197.73,1462.14 197.134,1461.03 196.113,1459.95C194.994,1458.77 193.825,1458.06 192.607,1457.8C191.389,1457.55 190.177,1457.85 188.972,1458.71L178.174,1447.3C180.412,1445.46 182.982,1444.3 185.883,1443.81C188.784,1443.32 191.854,1443.72 195.093,1445C198.332,1446.28 201.574,1448.63 204.819,1452.06C207.937,1455.35 210.117,1458.66 211.36,1461.98C212.603,1465.31 212.976,1468.42 212.481,1471.31C211.986,1474.21 210.675,1476.66 208.548,1478.67L184.919,1501.04L173.95,1489.45L178.802,1484.86L178.547,1484.59C175.623,1485.37 172.952,1485.31 170.534,1484.42C168.115,1483.53 165.843,1481.96 163.718,1479.71ZM175.36,1476.36C176.693,1477.77 178.321,1478.62 180.244,1478.93C182.168,1479.24 183.916,1478.65 185.489,1477.16L188.364,1474.44C186.693,1473.7 184.715,1472.45 182.429,1470.69C180.844,1469.47 179.418,1468.83 178.151,1468.78C176.883,1468.73 175.808,1469.12 174.924,1469.96C173.966,1470.87 173.551,1471.9 173.68,1473.05C173.808,1474.21 174.368,1475.31 175.36,1476.36Z" style="fill:rgb(13,121,242);fill-rule:nonzero;"/>
                <path d="M213.557,1524.4L244.286,1469.02L259.321,1477.36L247.317,1498.99L267.22,1510.04L279.224,1488.4L294.259,1496.75L263.53,1552.13L248.495,1543.79L260.498,1522.15L240.596,1511.11L228.592,1532.74L213.557,1524.4Z" style="fill:rgb(13,121,242);fill-rule:nonzero;"/>
                <path d="M298.93,1564.1C293.97,1562.69 290.003,1560.51 287.03,1557.54C284.056,1554.56 282.127,1551.04 281.243,1546.97C280.359,1542.89 280.579,1538.51 281.902,1533.83C283.225,1529.15 285.329,1525.3 288.215,1522.3C291.101,1519.29 294.588,1517.29 298.678,1516.32C302.767,1515.34 307.292,1515.55 312.252,1516.96C317.212,1518.36 321.179,1520.55 324.152,1523.52C327.126,1526.49 329.055,1530.01 329.939,1534.09C330.823,1538.16 330.603,1542.54 329.28,1547.22C327.957,1551.9 325.852,1555.75 322.967,1558.76C320.081,1561.77 316.594,1563.76 312.504,1564.74C308.415,1565.71 303.89,1565.5 298.93,1564.1ZM302.48,1551.99C304.564,1552.58 306.505,1552.02 308.306,1550.31C310.106,1548.6 311.514,1545.95 312.529,1542.36C313.544,1538.77 313.731,1535.77 313.091,1533.37C312.451,1530.98 311.09,1529.48 309.007,1528.89C306.804,1528.27 304.793,1528.81 302.973,1530.52C301.153,1532.22 299.735,1534.87 298.72,1538.46C297.705,1542.05 297.528,1545.04 298.187,1547.45C298.847,1549.85 300.278,1551.37 302.48,1551.99Z" style="fill:rgb(13,121,242);fill-rule:nonzero;"/>
                <path d="M335.419,1573.35L336.21,1525.85L352.413,1526.12L352.262,1535.15L352.757,1535.16C353.796,1532.21 355.526,1529.89 357.946,1528.19C360.366,1526.5 363.225,1525.68 366.523,1525.74C369.863,1525.8 372.724,1526.72 375.106,1528.53C377.489,1530.33 378.903,1532.69 379.35,1535.6L379.844,1535.61C380.697,1532.72 382.447,1530.41 385.094,1528.69C387.741,1526.97 390.827,1526.14 394.352,1526.2C398.908,1526.28 402.579,1527.8 405.365,1530.78C408.15,1533.75 409.503,1537.67 409.422,1542.54L408.888,1574.57L391.82,1574.29L392.281,1546.58C392.316,1544.5 391.817,1542.86 390.786,1541.65C389.754,1540.45 388.352,1539.84 386.579,1539.81C384.827,1539.78 383.431,1540.35 382.391,1541.52C381.35,1542.68 380.813,1544.31 380.778,1546.39L380.317,1574.1L363.991,1573.82L364.452,1546.12C364.487,1544.04 363.988,1542.39 362.956,1541.19C361.925,1539.99 360.523,1539.37 358.75,1539.34C356.998,1539.31 355.601,1539.88 354.561,1541.05C353.521,1542.22 352.984,1543.85 352.949,1545.93L352.488,1573.63L335.419,1573.35Z" style="fill:rgb(13,121,242);fill-rule:nonzero;"/>
                <path d="M436.137,1568.72C431.723,1569.77 427.852,1569.52 424.523,1567.99C421.194,1566.46 418.985,1563.4 417.897,1558.8C417.094,1555.41 417.2,1552.51 418.216,1550.08C419.231,1547.66 420.901,1545.63 423.227,1544C425.552,1542.37 428.274,1541.07 431.392,1540.1C435.217,1538.9 437.877,1537.83 439.371,1536.89C440.866,1535.95 441.454,1534.81 441.135,1533.47L441.107,1533.35C440.822,1532.14 440.142,1531.33 439.067,1530.91C437.992,1530.48 436.732,1530.44 435.288,1530.79C433.703,1531.16 432.496,1531.81 431.667,1532.74C430.838,1533.67 430.491,1534.87 430.628,1536.34L415.341,1539.96C414.876,1537.1 415.16,1534.3 416.192,1531.54C417.224,1528.79 419.104,1526.33 421.834,1524.17C424.564,1522.01 428.226,1520.38 432.82,1519.29C437.234,1518.25 441.19,1518.02 444.688,1518.61C448.186,1519.2 451.064,1520.44 453.321,1522.32C455.578,1524.2 457.044,1526.57 457.718,1529.41L465.216,1561.07L449.688,1564.75L448.149,1558.25L447.788,1558.34C446.996,1561.26 445.609,1563.54 443.626,1565.18C441.643,1566.83 439.146,1568.01 436.137,1568.72ZM439.073,1556.97C440.959,1556.52 442.518,1555.54 443.749,1554.03C444.981,1552.52 445.347,1550.71 444.848,1548.61L443.936,1544.76C442.452,1545.83 440.378,1546.91 437.714,1548.01C435.86,1548.77 434.593,1549.68 433.915,1550.75C433.236,1551.82 433.037,1552.95 433.318,1554.13C433.622,1555.42 434.306,1556.3 435.37,1556.76C436.435,1557.23 437.669,1557.3 439.073,1556.97Z" style="fill:rgb(13,121,242);fill-rule:nonzero;"/>
                <path d="M499.858,1547.88L467.163,1493.63L481.89,1484.76L494.661,1505.95L514.155,1494.2L501.384,1473.01L516.11,1464.13L548.805,1518.38L534.079,1527.25L521.307,1506.07L501.813,1517.81L514.585,1539L499.858,1547.88Z" style="fill:rgb(13,121,242);fill-rule:nonzero;"/>
                <path d="M576.74,1493.83C573.042,1497.41 569.161,1499.75 565.099,1500.84C561.037,1501.92 557.022,1501.82 553.053,1500.55C549.084,1499.27 545.406,1496.89 542.017,1493.39C538.628,1489.9 536.354,1486.16 535.197,1482.15C534.039,1478.15 534.062,1474.13 535.267,1470.1C536.471,1466.07 538.923,1462.27 542.621,1458.67C546.32,1455.09 550.2,1452.75 554.262,1451.66C558.324,1450.58 562.34,1450.68 566.308,1451.95C570.277,1453.23 573.956,1455.61 577.345,1459.1C580.734,1462.6 583.007,1466.34 584.165,1470.35C585.323,1474.35 585.299,1478.37 584.095,1482.4C582.89,1486.43 580.439,1490.24 576.74,1493.83ZM568.041,1484.68C569.594,1483.18 570.083,1481.22 569.506,1478.8C568.93,1476.39 567.342,1473.84 564.743,1471.16C562.144,1468.49 559.646,1466.82 557.25,1466.17C554.854,1465.53 552.879,1465.96 551.326,1467.46C549.684,1469.06 549.144,1471.07 549.705,1473.5C550.267,1475.93 551.847,1478.48 554.446,1481.16C557.045,1483.84 559.55,1485.49 561.961,1486.12C564.372,1486.76 566.399,1486.28 568.041,1484.68Z" style="fill:rgb(13,121,242);fill-rule:nonzero;"/>
                <path d="M601.769,1428.93L579.525,1414.13L588.983,1399.92L628.528,1426.23L619.55,1439.72L612.032,1434.72L611.758,1435.13C613.71,1437.67 614.68,1440.48 614.669,1443.57C614.657,1446.66 613.669,1449.68 611.704,1452.63C609.865,1455.39 607.622,1457.39 604.976,1458.61C602.329,1459.83 599.51,1460.27 596.52,1459.93C593.529,1459.59 590.586,1458.46 587.691,1456.56L562.46,1439.77L571.918,1425.56L594.162,1440.36C596.13,1441.65 598,1442.17 599.773,1441.92C601.545,1441.68 603.025,1440.66 604.213,1438.88C605.39,1437.11 605.769,1435.33 605.35,1433.54C604.931,1431.75 603.737,1430.22 601.769,1428.93Z" style="fill:rgb(13,121,242);fill-rule:nonzero;"/>
                <path d="M616.466,1387.76L641.387,1397.4L635.231,1413.32L590.926,1396.19L596.77,1381.08L605.192,1384.33L605.371,1383.87C602.935,1381.83 601.389,1379.28 600.734,1376.23C600.078,1373.18 600.379,1370.03 601.635,1366.78C602.847,1363.64 604.618,1361.19 606.946,1359.43C609.275,1357.67 611.936,1356.63 614.93,1356.32C617.925,1356.01 621.024,1356.48 624.228,1357.74L652.496,1368.67L646.339,1384.59L621.417,1374.96C619.233,1374.09 617.298,1373.98 615.613,1374.62C613.928,1375.26 612.699,1376.58 611.926,1378.58C611.16,1380.56 611.179,1382.37 611.983,1384.01C612.787,1385.64 614.281,1386.9 616.466,1387.76Z" style="fill:rgb(13,121,242);fill-rule:nonzero;"/>
                <path d="M659.357,1337.83C658.842,1341.17 657.492,1344.1 655.308,1346.64C653.124,1349.17 650.119,1351 646.294,1352.13C642.469,1353.26 637.846,1353.41 632.426,1352.57C626.762,1351.7 622.292,1350.11 619.019,1347.8C615.745,1345.49 613.499,1342.81 612.28,1339.75C611.062,1336.69 610.692,1333.62 611.169,1330.52C611.706,1327.04 613.016,1324.33 615.097,1322.4C617.179,1320.46 619.482,1319.22 622.007,1318.67L622.045,1318.43L598.205,1314.75L600.806,1297.88L663.402,1307.53L660.82,1324.28L653.118,1323.1L653.061,1323.46C655.294,1324.81 657.029,1326.71 658.266,1329.18C659.503,1331.64 659.866,1334.53 659.357,1337.83ZM647.36,1329.59C647.718,1327.27 647,1325.29 645.208,1323.66C643.415,1322.03 640.807,1320.95 637.384,1320.42C633.9,1319.88 631.072,1320.12 628.902,1321.14C626.731,1322.17 625.467,1323.84 625.109,1326.16C624.75,1328.49 625.456,1330.44 627.224,1332.03C628.992,1333.61 631.619,1334.67 635.103,1335.21C638.587,1335.75 641.412,1335.53 643.576,1334.55C645.74,1333.57 647.001,1331.91 647.36,1329.59Z" style="fill:rgb(13,121,242);fill-rule:nonzero;"/>
                <path d="M629.338,1251.59L630.209,1267.28C628.754,1267.48 627.644,1268.22 626.879,1269.51C626.114,1270.79 625.778,1272.27 625.872,1273.96C625.953,1275.42 626.29,1276.66 626.884,1277.68C627.477,1278.7 628.267,1279.17 629.254,1279.1C629.955,1279.08 630.587,1278.74 631.149,1278.08C631.711,1277.42 632.107,1276.17 632.335,1274.34L633.53,1264.61C634.727,1254.95 638.742,1249.89 645.573,1249.45C648.95,1249.28 651.934,1250.12 654.525,1251.97C657.115,1253.82 659.18,1256.42 660.719,1259.77C662.257,1263.13 663.148,1267 663.392,1271.38C663.794,1278.63 662.627,1284.38 659.889,1288.63C657.152,1292.88 653.367,1295.37 648.535,1296.12L647.596,1279.19C649.086,1278.89 650.203,1278.08 650.945,1276.76C651.688,1275.45 652.006,1273.83 651.898,1271.89C651.812,1270.33 651.472,1269.05 650.88,1268.06C650.289,1267.08 649.498,1266.6 648.509,1266.63C646.865,1266.79 645.813,1268.66 645.352,1272.26L644.336,1280.74C643.166,1290.53 638.781,1295.61 631.182,1295.96C626.243,1296.26 622.326,1294.53 619.433,1290.76C616.54,1287 614.905,1281.73 614.529,1274.96C614.148,1268.11 615.269,1262.62 617.889,1258.5C620.51,1254.38 624.326,1252.08 629.338,1251.59Z" style="fill:rgb(13,121,242);fill-rule:nonzero;"/>
            </g>
        </g>
    </g>
</svg>
