<?xml version="1.0" encoding="UTF-8" standalone="no"?>
<!DOCTYPE svg PUBLIC "-//W3C//DTD SVG 1.1//EN" "http://www.w3.org/Graphics/SVG/1.1/DTD/svg11.dtd">
<svg width="100%" height="100%" viewBox="0 0 800 801" version="1.1" xmlns="http://www.w3.org/2000/svg" xmlns:xlink="http://www.w3.org/1999/xlink" xml:space="preserve" xmlns:serif="http://www.serif.com/" style="fill-rule:evenodd;clip-rule:evenodd;stroke-linejoin:round;stroke-miterlimit:2;">
    <g transform="matrix(1,0,0,1,-944,-911)">
        <g id="chh_mark_text_dark" transform="matrix(1,0,0,1,944,911.192)">
            <rect x="0" y="0" width="800" height="800" style="fill:rgb(24,24,27);"/>
            <g transform="matrix(1,0,0,1.02639,-50,-71.1144)">
                <path d="M450,118C643.17,118 800,270.797 800,459C800,647.203 643.17,800 450,800C256.83,800 100,647.203 100,459C100,270.797 256.83,118 450,118ZM450,147.229C626.613,147.229 770,286.929 770,459C770,631.071 626.613,770.771 450,770.771C273.387,770.771 130,631.071 130,459C130,286.929 273.387,147.229 450,147.229Z" style="fill:rgb(255,255,240);"/>
            </g>
            <g transform="matrix(0.875,0,0,0.898094,6.25,-12.2251)">
                <path d="M450,118C643.17,118 800,270.797 800,459C800,647.203 643.17,800 450,800C256.83,800 100,647.203 100,459C100,270.797 256.83,118 450,118ZM450,151.404C624.247,151.404 765.714,289.233 765.714,459C765.714,628.767 624.247,766.596 450,766.596C275.753,766.596 134.286,628.767 134.286,459C134.286,289.233 275.753,151.404 450,151.404Z" style="fill:rgb(255,255,240);"/>
            </g>
            <g transform="matrix(0.328245,0,0,0.328245,210.071,197.744)">
                <path d="M575,109.441C739.829,109.441 703.994,166.753 771.197,167.756C780.436,167.894 802.516,168.129 824.866,153.854C941.071,79.636 1099.71,4.972 1126.79,44.993C1151.73,81.85 1132.24,190.993 1095.39,277.47C1066.81,344.555 1023.01,388.489 1011.68,435.01C999.598,484.599 1011.04,560.562 1008.05,624.826C1004.98,690.871 997.455,731.556 966.52,772.116C913.675,841.403 771.995,861.513 740.59,957.872C728.302,995.575 702.731,1098.97 671.464,1141.67C626.662,1202.87 575,1198.47 575,1198.47C575,1198.47 523.338,1202.87 478.536,1141.67C447.269,1098.97 421.698,995.575 409.41,957.872C378.005,861.513 236.325,841.403 183.48,772.116C152.545,731.556 145.02,690.871 141.948,624.826C138.959,560.562 150.402,484.599 138.32,435.01C126.985,388.489 83.193,344.555 54.607,277.47C17.757,190.993 -1.726,81.85 23.213,44.993C50.292,4.972 208.929,79.636 325.134,153.854C347.484,168.129 369.564,167.894 378.803,167.756C446.006,166.753 410.171,109.441 575,109.441Z" style="fill:rgb(255,255,240);"/>
            </g>
            <g transform="matrix(0.918626,0,0,0.918626,53.6779,-783.191)">
                <path d="M139.85,1315L140.043,1297.56C142.932,1297.34 145.273,1296.32 147.067,1294.5C148.86,1292.67 149.775,1290.1 149.812,1286.78C149.86,1282.45 148.346,1279.12 145.268,1276.8C142.191,1274.48 137.9,1273.29 132.396,1273.23C126.582,1273.16 122.189,1274.27 119.215,1276.56C116.241,1278.85 114.731,1282.08 114.684,1286.27C114.649,1289.42 115.41,1291.94 116.966,1293.84C118.523,1295.73 120.649,1296.91 123.344,1297.37L123.027,1314.81C120.349,1314.58 117.631,1313.79 114.873,1312.46C112.115,1311.13 109.579,1309.27 107.265,1306.86C104.952,1304.45 103.103,1301.49 101.72,1297.97C100.336,1294.45 99.67,1290.37 99.721,1285.73C99.786,1279.92 101.091,1274.72 103.637,1270.14C106.182,1265.56 109.892,1261.96 114.767,1259.35C119.641,1256.73 125.583,1255.46 132.592,1255.54C139.643,1255.62 145.57,1257.04 150.374,1259.82C155.179,1262.59 158.797,1266.3 161.23,1270.95C163.663,1275.59 164.848,1280.76 164.785,1286.45C164.726,1291.77 163.715,1296.51 161.751,1300.66C159.787,1304.81 156.957,1308.14 153.259,1310.65C149.561,1313.15 145.091,1314.6 139.85,1315Z" style="fill:rgb(255,255,240);fill-rule:nonzero;"/>
                <path d="M131.998,1336.93L105.946,1342.87L102.154,1326.23L163.908,1312.16L167.562,1328.2L143.319,1333.72L143.429,1334.2C146.622,1334.58 149.325,1335.79 151.537,1337.85C153.75,1339.9 155.245,1342.63 156.024,1346.05C156.77,1349.33 156.676,1352.35 155.74,1355.11C154.804,1357.87 153.182,1360.22 150.873,1362.15C148.564,1364.08 145.719,1365.42 142.337,1366.17L112.787,1372.9L108.996,1356.26L135.048,1350.32C137.344,1349.82 139.014,1348.84 140.057,1347.39C141.101,1345.94 141.38,1344.14 140.894,1342.01C140.432,1339.98 139.408,1338.5 137.822,1337.58C136.236,1336.65 134.294,1336.43 131.998,1336.93Z" style="fill:rgb(255,255,240);fill-rule:nonzero;"/>
                <path d="M148.757,1403.39L172.904,1391.95L180.212,1407.38L137.284,1427.72L130.346,1413.07L138.507,1409.2L138.295,1408.76C135.115,1409.12 132.205,1408.51 129.564,1406.91C126.924,1405.31 124.844,1402.9 123.326,1399.7C121.905,1396.7 121.352,1393.75 121.667,1390.85C121.982,1387.95 123.058,1385.31 124.893,1382.92C126.728,1380.54 129.206,1378.59 132.328,1377.09L159.717,1364.12L167.025,1379.54L142.878,1390.98C140.763,1392.01 139.353,1393.34 138.65,1394.99C137.946,1396.63 138.053,1398.42 138.971,1400.36C139.881,1402.28 141.21,1403.52 142.959,1404.08C144.709,1404.65 146.641,1404.42 148.757,1403.39Z" style="fill:rgb(255,255,240);fill-rule:nonzero;"/>
                <path d="M206.599,1416.16L154.553,1452.26L144.825,1438.23L196.871,1402.13L206.599,1416.16Z" style="fill:rgb(255,255,240);fill-rule:nonzero;"/>
                <path d="M170.675,1473.13C167.558,1469.84 165.827,1466.36 165.482,1462.71C165.138,1459.07 166.68,1455.62 170.11,1452.38C172.64,1449.98 175.208,1448.61 177.813,1448.28C180.419,1447.94 183.01,1448.37 185.588,1449.56C188.165,1450.76 190.656,1452.46 193.06,1454.67C196.019,1457.38 198.278,1459.14 199.838,1459.96C201.397,1460.79 202.679,1460.73 203.682,1459.78L203.772,1459.69C204.67,1458.84 205.033,1457.84 204.861,1456.7C204.688,1455.56 204.091,1454.45 203.071,1453.37C201.952,1452.19 200.783,1451.47 199.565,1451.22C198.347,1450.96 197.135,1451.27 195.93,1452.12L185.131,1440.71C187.37,1438.88 189.939,1437.72 192.84,1437.23C195.741,1436.74 198.811,1437.13 202.05,1438.41C205.289,1439.69 208.531,1442.04 211.777,1445.47C214.894,1448.77 217.075,1452.08 218.318,1455.4C219.56,1458.72 219.934,1461.83 219.439,1464.73C218.943,1467.62 217.632,1470.08 215.506,1472.09L191.876,1494.45L180.908,1482.86L185.759,1478.27L185.504,1478C182.581,1478.78 179.91,1478.73 177.491,1477.83C175.073,1476.94 172.801,1475.38 170.675,1473.13ZM182.318,1469.78C183.65,1471.18 185.278,1472.04 187.202,1472.35C189.126,1472.66 190.874,1472.07 192.447,1470.58L195.322,1467.86C193.65,1467.11 191.672,1465.86 189.387,1464.11C187.802,1462.88 186.376,1462.24 185.108,1462.19C183.841,1462.14 182.765,1462.54 181.882,1463.38C180.924,1464.28 180.509,1465.31 180.637,1466.47C180.766,1467.62 181.326,1468.73 182.318,1469.78Z" style="fill:rgb(255,255,240);fill-rule:nonzero;"/>
                <path d="M218.205,1516.02L248.933,1460.64L263.969,1468.98L251.965,1490.62L271.868,1501.66L283.871,1480.03L298.907,1488.37L268.178,1543.75L253.143,1535.41L265.146,1513.78L245.243,1502.73L233.24,1524.37L218.205,1516.02Z" style="fill:rgb(255,255,240);fill-rule:nonzero;"/>
                <path d="M301.535,1554.88C296.575,1553.48 292.608,1551.29 289.635,1548.32C286.661,1545.35 284.732,1541.82 283.848,1537.75C282.964,1533.67 283.184,1529.3 284.507,1524.61C285.83,1519.93 287.935,1516.09 290.82,1513.08C293.706,1510.07 297.193,1508.08 301.283,1507.1C305.372,1506.12 309.897,1506.34 314.857,1507.74C319.817,1509.14 323.784,1511.33 326.757,1514.3C329.731,1517.27 331.66,1520.79 332.544,1524.87C333.428,1528.94 333.208,1533.32 331.885,1538C330.562,1542.68 328.457,1546.53 325.572,1549.54C322.686,1552.55 319.199,1554.54 315.109,1555.52C311.02,1556.49 306.495,1556.28 301.535,1554.88ZM305.086,1542.77C307.169,1543.36 309.111,1542.8 310.911,1541.09C312.712,1539.38 314.119,1536.73 315.134,1533.14C316.149,1529.55 316.336,1526.55 315.696,1524.16C315.057,1521.76 313.695,1520.26 311.612,1519.67C309.41,1519.05 307.398,1519.59 305.578,1521.3C303.758,1523 302.34,1525.65 301.325,1529.24C300.31,1532.83 300.133,1535.83 300.793,1538.23C301.452,1540.63 302.883,1542.15 305.086,1542.77Z" style="fill:rgb(255,255,240);fill-rule:nonzero;"/>
                <path d="M335.579,1563.77L336.369,1516.28L352.572,1516.54L352.422,1525.57L352.917,1525.58C353.956,1522.63 355.685,1520.31 358.105,1518.62C360.525,1516.92 363.384,1516.11 366.683,1516.16C370.022,1516.22 372.883,1517.15 375.266,1518.95C377.648,1520.75 379.063,1523.11 379.509,1526.02L380.004,1526.03C380.856,1523.14 382.606,1520.83 385.253,1519.12C387.901,1517.4 390.987,1516.57 394.512,1516.62C399.068,1516.7 402.738,1518.23 405.524,1521.2C408.31,1524.17 409.662,1528.09 409.581,1532.96L409.048,1564.99L391.979,1564.71L392.441,1537C392.475,1534.92 391.977,1533.28 390.945,1532.08C389.914,1530.87 388.511,1530.26 386.739,1530.23C384.986,1530.2 383.59,1530.77 382.55,1531.94C381.51,1533.11 380.972,1534.73 380.938,1536.81L380.477,1564.52L364.15,1564.25L364.611,1536.54C364.646,1534.46 364.148,1532.82 363.116,1531.61C362.084,1530.41 360.682,1529.79 358.909,1529.76C357.157,1529.74 355.761,1530.31 354.721,1531.47C353.681,1532.64 353.143,1534.27 353.109,1536.35L352.647,1564.05L335.579,1563.77Z" style="fill:rgb(255,255,240);fill-rule:nonzero;"/>
                <path d="M433.929,1559.4C429.516,1560.44 425.644,1560.2 422.315,1558.67C418.986,1557.14 416.778,1554.08 415.69,1549.48C414.886,1546.09 414.993,1543.18 416.008,1540.76C417.023,1538.34 418.693,1536.31 421.019,1534.68C423.345,1533.05 426.066,1531.75 429.184,1530.78C433.009,1529.57 435.669,1528.5 437.164,1527.57C438.658,1526.63 439.246,1525.49 438.928,1524.15L438.899,1524.03C438.614,1522.82 437.934,1522.01 436.859,1521.59C435.784,1521.16 434.524,1521.12 433.08,1521.46C431.495,1521.84 430.288,1522.49 429.459,1523.42C428.63,1524.35 428.284,1525.55 428.42,1527.02L413.133,1530.64C412.668,1527.78 412.952,1524.98 413.984,1522.22C415.016,1519.46 416.897,1517.01 419.626,1514.85C422.356,1512.68 426.018,1511.06 430.612,1509.97C435.026,1508.93 438.982,1508.7 442.48,1509.29C445.978,1509.88 448.856,1511.12 451.113,1513C453.37,1514.88 454.836,1517.24 455.51,1520.09L463.009,1551.75L447.481,1555.43L445.941,1548.93L445.58,1549.01C444.789,1551.93 443.401,1554.22 441.418,1555.86C439.435,1557.51 436.938,1558.69 433.929,1559.4ZM436.866,1547.64C438.751,1547.2 440.31,1546.22 441.541,1544.71C442.773,1543.2 443.139,1541.39 442.64,1539.29L441.728,1535.43C440.244,1536.51 438.171,1537.59 435.507,1538.69C433.652,1539.44 432.385,1540.36 431.707,1541.43C431.029,1542.5 430.829,1543.63 431.11,1544.81C431.414,1546.1 432.098,1546.97 433.163,1547.44C434.227,1547.91 435.461,1547.98 436.866,1547.64Z" style="fill:rgb(255,255,240);fill-rule:nonzero;"/>
                <path d="M494.913,1539.67L462.218,1485.43L476.945,1476.56L489.716,1497.74L509.21,1485.99L496.439,1464.81L511.165,1455.93L543.86,1510.17L529.134,1519.05L516.362,1497.86L496.868,1509.61L509.64,1530.8L494.913,1539.67Z" style="fill:rgb(255,255,240);fill-rule:nonzero;"/>
                <path d="M570.068,1486.95C566.37,1490.54 562.489,1492.88 558.427,1493.96C554.365,1495.05 550.35,1494.95 546.381,1493.67C542.412,1492.4 538.734,1490.01 535.345,1486.52C531.956,1483.03 529.682,1479.28 528.525,1475.28C527.367,1471.27 527.39,1467.26 528.595,1463.23C529.799,1459.2 532.251,1455.39 535.949,1451.8C539.648,1448.21 543.528,1445.87 547.59,1444.79C551.652,1443.71 555.667,1443.8 559.636,1445.08C563.605,1446.36 567.284,1448.74 570.672,1452.23C574.061,1455.72 576.335,1459.47 577.493,1463.48C578.65,1467.48 578.627,1471.5 577.423,1475.52C576.218,1479.55 573.766,1483.36 570.068,1486.95ZM561.369,1477.81C562.922,1476.3 563.41,1474.34 562.834,1471.93C562.258,1469.51 560.67,1466.97 558.071,1464.29C555.472,1461.61 552.974,1459.95 550.578,1459.3C548.182,1458.65 546.207,1459.08 544.654,1460.59C543.012,1462.18 542.471,1464.2 543.033,1466.62C543.595,1469.05 545.175,1471.61 547.774,1474.28C550.373,1476.96 552.878,1478.62 555.289,1479.25C557.7,1479.88 559.726,1479.4 561.369,1477.81Z" style="fill:rgb(255,255,240);fill-rule:nonzero;"/>
                <path d="M593.794,1423.62L571.55,1408.82L581.008,1394.61L620.553,1420.93L611.575,1434.42L604.057,1429.41L603.783,1429.83C605.735,1432.36 606.705,1435.18 606.694,1438.26C606.682,1441.35 605.694,1444.37 603.729,1447.32C601.89,1450.09 599.647,1452.08 597.001,1453.3C594.354,1454.53 591.536,1454.97 588.545,1454.62C585.554,1454.28 582.611,1453.16 579.716,1451.25L554.485,1434.46L563.943,1420.25L586.187,1435.06C588.155,1436.34 590.025,1436.86 591.798,1436.62C593.57,1436.37 595.05,1435.36 596.238,1433.57C597.415,1431.8 597.794,1430.03 597.375,1428.24C596.956,1426.45 595.762,1424.91 593.794,1423.62Z" style="fill:rgb(255,255,240);fill-rule:nonzero;"/>
                <path d="M607.531,1384.31L632.452,1393.94L626.296,1409.87L581.991,1392.74L587.835,1377.62L596.257,1380.88L596.436,1380.42C594,1378.37 592.455,1375.82 591.799,1372.77C591.143,1369.72 591.444,1366.57 592.701,1363.32C593.913,1360.19 595.683,1357.74 598.011,1355.98C600.34,1354.21 603.001,1353.17 605.996,1352.86C608.99,1352.55 612.089,1353.03 615.293,1354.29L643.561,1365.22L637.404,1381.14L612.483,1371.5C610.298,1370.63 608.363,1370.52 606.678,1371.16C604.993,1371.81 603.764,1373.13 602.991,1375.13C602.225,1377.11 602.244,1378.92 603.048,1380.55C603.852,1382.19 605.346,1383.44 607.531,1384.31Z" style="fill:rgb(255,255,240);fill-rule:nonzero;"/>
                <path d="M649.89,1336.37C649.375,1339.71 648.025,1342.64 645.84,1345.18C643.656,1347.71 640.651,1349.54 636.826,1350.67C633.001,1351.8 628.379,1351.95 622.959,1351.11C617.294,1350.24 612.825,1348.65 609.551,1346.34C606.277,1344.03 604.031,1341.35 602.813,1338.29C601.594,1335.24 601.224,1332.16 601.701,1329.06C602.239,1325.58 603.548,1322.87 605.63,1320.94C607.711,1319.01 610.014,1317.76 612.54,1317.21L612.578,1316.97L588.737,1313.29L591.339,1296.42L653.935,1306.07L651.352,1322.82L643.65,1321.64L643.593,1322C645.827,1323.35 647.562,1325.25 648.798,1327.72C650.035,1330.18 650.399,1333.07 649.89,1336.37ZM637.892,1328.13C638.25,1325.81 637.533,1323.83 635.74,1322.2C633.947,1320.57 631.34,1319.49 627.916,1318.96C624.432,1318.42 621.605,1318.66 619.434,1319.69C617.263,1320.71 615.999,1322.38 615.641,1324.7C615.283,1327.03 615.988,1328.98 617.756,1330.57C619.525,1332.15 622.151,1333.22 625.635,1333.75C629.12,1334.29 631.944,1334.07 634.108,1333.09C636.273,1332.11 637.534,1330.46 637.892,1328.13Z" style="fill:rgb(255,255,240);fill-rule:nonzero;"/>
                <path d="M619.773,1252.12L620.644,1267.81C619.189,1268.01 618.079,1268.76 617.314,1270.04C616.549,1271.32 616.213,1272.8 616.307,1274.49C616.388,1275.95 616.725,1277.19 617.319,1278.21C617.912,1279.23 618.703,1279.7 619.69,1279.63C620.391,1279.61 621.022,1279.27 621.584,1278.61C622.146,1277.95 622.542,1276.7 622.771,1274.88L623.965,1265.14C625.163,1255.48 629.177,1250.42 636.008,1249.98C639.385,1249.81 642.369,1250.65 644.96,1252.5C647.551,1254.35 649.615,1256.95 651.154,1260.31C652.693,1263.66 653.584,1267.53 653.827,1271.91C654.229,1279.16 653.062,1284.91 650.325,1289.16C647.587,1293.41 643.803,1295.9 638.971,1296.65L638.031,1279.73C639.521,1279.42 640.638,1278.61 641.381,1277.3C642.123,1275.98 642.441,1274.36 642.334,1272.43C642.247,1270.86 641.907,1269.58 641.316,1268.6C640.724,1267.61 639.933,1267.13 638.944,1267.16C637.301,1267.32 636.249,1269.19 635.788,1272.79L634.772,1281.27C633.601,1291.06 629.217,1296.14 621.617,1296.5C616.678,1296.79 612.762,1295.06 609.868,1291.3C606.975,1287.53 605.34,1282.26 604.964,1275.49C604.584,1268.64 605.704,1263.15 608.325,1259.03C610.945,1254.91 614.761,1252.61 619.773,1252.12Z" style="fill:rgb(255,255,240);fill-rule:nonzero;"/>
            </g>
        </g>
    </g>
</svg>
