<svg fill="none" stroke="currentColor" xmlns="http://www.w3.org/2000/svg" xml:space="preserve" fill-rule="evenodd" stroke-linejoin="round" stroke-miterlimit="2" clip-rule="evenodd" viewBox="0 0 2063 801">
  <path d="M400.0004 50.1916c193.1701 0 350.0003 156.8293 350.0003 349.999 0 193.1697-156.8302 349.999-350.0003 349.999C206.8302 750.1896 50 593.3603 50 400.1906c0-193.1697 156.8302-349.999 350.0004-349.999Zm0 30.0004c176.6131 0 320.0002 143.3867 320.0002 319.9986 0 176.612-143.387 319.9986-320.0002 319.9986S80 576.8026 80 400.1906C80 223.5786 223.3872 80.192 400.0004 80.192Z"/>
  <path d="M400.001 93.942c169.0241 0 306.2507 137.226 306.2507 306.25S569.025 706.4421 400.001 706.4421c-169.0242 0-306.2508-137.226-306.2508-306.25S230.9768 93.942 400.001 93.942Zm0 30c152.4664 0 276.2504 123.7833 276.2504 276.25 0 152.4668-123.784 276.2502-276.2504 276.2502-152.4665 0-276.2505-123.7834-276.2505-276.2502 0-152.4667 123.784-276.25 276.2505-276.25Z"/>
  <path d="M398.799 264.6684c58.347 0 45.6619 20.2875 69.4507 20.6425 3.2705.0489 11.0864.132 18.998-4.921 41.1347-26.272 97.2904-52.7019 106.8763-38.5351 8.8284 13.0468 1.9292 51.6817-11.1151 82.2931-10.1169 23.747-25.6214 39.299-29.632 55.7667-4.2769 17.5537-.2266 44.4434-1.285 67.1918-1.0867 23.3789-3.7505 37.7807-14.701 52.1383-18.7062 24.5265-68.8587 31.6451-79.9756 65.7547-4.3498 13.3462-13.4015 49.9464-24.4695 65.0615-15.8592 21.6638-34.1467 20.1063-34.1467 20.1063s-18.2876 1.5575-34.1468-20.1063c-11.068-15.1151-20.1197-51.7153-24.4695-65.0615-11.1168-34.1096-61.2693-41.2282-79.9756-65.7547-10.9505-14.3576-13.6142-28.7594-14.7017-52.1383-1.058-22.7484 2.9926-49.6381-1.2842-67.1918-4.0125-16.4677-19.5141-32.0196-29.6331-55.7667-13.0443-30.6114-19.941-69.2463-11.113-82.2931 9.5855-14.1668 65.7405 12.263 106.8753 38.535 7.9115 5.0532 15.7275 4.97 18.998 4.9211 23.7887-.355 11.1037-20.6425 69.4506-20.6425Z"/>
  <path fill-rule="nonzero" d="M982.9148 165.7545h-53.729c-.7662-8.8917-3.9842-16.068-9.6732-21.53-5.6794-5.462-13.6381-8.1934-23.8668-8.1934-13.3317 0-23.5316 4.7791-30.5805 14.3383-7.049 9.5582-10.5734 22.8161-10.5734 39.7738 0 17.9106 3.5723 31.407 10.717 40.4893 7.1448 9.0812 17.1627 13.6228 30.0634 13.6228 9.7115 0 17.4596-2.4298 23.2443-7.2884 5.7751-4.8586 9.338-11.4478 10.6692-19.7676l53.729.3811c-.6321 8.2567-2.9498 16.656-6.9532 25.198-4.0033 8.5421-9.6731 16.4176-17.0094 23.6265-7.3362 7.2088-16.3964 13.004-27.1997 17.3867-10.7937 4.3816-23.34 6.573-37.6295 6.573-17.9096 0-33.9613-3.8425-48.155-11.5274-14.1936-7.6848-25.4087-18.99-33.626-33.9153-8.227-14.9254-12.3453-33.1846-12.3453-54.7787 0-21.7205 4.1949-40.0286 12.5846-54.9214 8.3802-14.8937 19.6815-26.1672 33.9135-33.8205 14.2224-7.6533 30.1017-11.4794 47.6282-11.4794 16.3869 0 31.0115 2.9536 43.874 8.86 12.8623 5.9064 23.2155 14.5126 31.0593 25.8177 7.8439 11.3051 12.4602 25.0228 13.8585 41.1549Zm24.0104 121.9427V92.5892h52.9629v76.2137h70.1159V92.5892h52.9724v195.108h-52.9724v-76.2137h-70.116v76.2137h-52.9628Zm316.6661-195.108h52.9724v124.9912c0 14.8612-3.5437 27.7073-10.6213 38.5355-7.0873 10.8291-16.9424 19.1806-29.5845 25.0553-12.6421 5.8748-27.3147 8.8122-44.0176 8.8122-16.8274 0-31.5574-2.9374-44.1995-8.8122-12.6422-5.8747-22.4685-14.2262-29.4887-25.0553-7.0107-10.8282-10.5256-23.6743-10.5256-38.5355V92.5892h52.9724v120.418c0 9.0823 2.9307 16.5612 8.8112 22.436 5.871 5.8747 13.3509 8.812 22.4302 8.812 9.089 0 16.5689-2.9373 22.4398-8.812 5.8709-5.8748 8.8112-13.3537 8.8112-22.436V92.5892Zm78.1225 195.108V92.5892h52.9629v152.4285h78.8887v42.6795h-131.8516Zm203.8734 0H1548.42l64.4078-195.108h72.3953l64.4078 195.108h-57.1673l-11.2343-37.345h-64.4077l-11.2343 37.345Zm23.2443-76.976h40.3877l-19.4325-64.4011h-1.5228l-19.4324 64.401ZM800.7629 494.9753V299.8672h52.9724v76.2137h70.1159v-76.2137h52.9628v195.108h-52.9628v-76.2147h-70.116v76.2148H800.763Zm390.2201-97.5541c0 21.7205-4.2236 40.0276-12.6708 54.9214-8.4472 14.8937-19.8539 26.1673-34.2008 33.8205-14.3564 7.6523-30.3602 11.4794-48.0209 11.4794-17.7852 0-33.8368-3.8587-48.155-11.5751-14.3181-7.7165-25.696-19.0216-34.105-33.9154-8.4185-14.8937-12.623-33.1367-12.623-54.7308 0-21.7214 4.2045-40.0286 12.623-54.9223 8.409-14.8928 19.7869-26.1663 34.105-33.8196 14.3182-7.6532 30.3698-11.4794 48.155-11.4794 17.6607 0 33.6645 3.8262 48.021 11.4794 14.3468 7.6533 25.7535 18.9268 34.2007 33.8196 8.4472 14.8937 12.6709 33.2009 12.6709 54.9223Zm-54.4952 0c0-17.5294-3.4478-30.93-10.334-40.2029-6.8956-9.2728-16.9136-13.9092-30.0633-13.9092-13.1497 0-23.1676 4.6364-30.0538 13.9092-6.8957 9.2728-10.334 22.6735-10.334 40.203 0 17.5294 3.4383 30.93 10.334 40.2028 6.8862 9.2728 16.904 13.9092 30.0538 13.9092 13.1497 0 23.1677-4.6364 30.0634-13.9092 6.886-9.2728 10.334-22.6734 10.334-40.2029Zm78.8792-97.554h65.9306l45.3393 110.5103h2.289l45.3488-110.5103h65.921v195.108h-51.8231V382.178h-1.5228l-43.443 111.2726h-31.251l-43.4333-112.034h-1.5323v113.5588h-51.8232V299.8672Zm300.6623 195.1081h-57.1578l64.3983-195.1081h72.4048l64.3982 195.108h-57.1577l-11.2438-37.345h-64.3982l-11.2438 37.345Zm23.2442-76.9762h40.3974l-19.4325-64.401h-1.5228l-19.442 64.401ZM800.7629 702.2523v-195.108h52.9724v76.2147h70.1159v-76.2148h52.9628v195.1081h-52.9628v-76.2137h-70.116v76.2137H800.763Zm390.2201-97.554c0 21.7214-4.2236 40.0286-12.6708 54.9223-8.4472 14.8938-19.8539 26.1663-34.2008 33.8196-14.3564 7.6532-30.3602 11.4804-48.0209 11.4804-17.7852 0-33.8368-3.8588-48.155-11.5752-14.3181-7.7165-25.696-19.0216-34.105-33.9154-8.4185-14.8937-12.623-33.1376-12.623-54.7317 0-21.7205 4.2045-40.0276 12.623-54.9214 8.409-14.8937 19.7869-26.1673 34.105-33.8196 14.3182-7.6532 30.3698-11.4803 48.155-11.4803 17.6607 0 33.6645 3.827 48.021 11.4803 14.3468 7.6523 25.7535 18.9259 34.2007 33.8196 8.4472 14.8938 12.6709 33.2009 12.6709 54.9214Zm-54.4952 0c0-17.5285-3.4478-30.9301-10.334-40.203-6.8956-9.2727-16.9136-13.9081-30.0633-13.9081-13.1497 0-23.1676 4.6354-30.0538 13.9082-6.8957 9.2728-10.334 22.6744-10.334 40.2029 0 17.5294 3.4383 30.931 10.334 40.2029 6.8862 9.2728 16.904 13.9092 30.0538 13.9092 13.1497 0 23.1677-4.6364 30.0634-13.9092 6.886-9.2719 10.334-22.6735 10.334-40.203Zm194.3439-97.5541h52.9725v124.9913c0 14.8621-3.5437 27.7073-10.631 38.5364-7.0776 10.8282-16.9327 19.1796-29.5748 25.0554-12.6421 5.8747-27.3147 8.812-44.0176 8.812-16.8274 0-31.5574-2.9373-44.1995-8.812-12.6422-5.8758-22.4685-14.2272-29.4887-25.0554-7.0107-10.8291-10.5256-23.6743-10.5256-38.5364V507.1442h52.9724v120.419c0 9.0823 2.9307 16.5603 8.8112 22.435 5.871 5.8748 13.3509 8.8122 22.4302 8.8122 9.089 0 16.5688-2.9374 22.4398-8.8122 5.8709-5.8747 8.8111-13.3527 8.8111-22.435v-120.419Zm246.9333 0v195.1081h-44.1996l-70.499-102.5074h-1.1493v102.5074h-52.9628v-195.108h44.9657l69.3498 102.1272h1.5228V507.1442h52.9724Zm100.227 195.1081h-75.0769v-195.108h74.3108c20.0646 0 37.4283 3.8903 52.0626 11.671 14.6438 7.7796 25.945 18.9583 33.9134 33.534 7.978 14.5759 11.9621 32.0258 11.9621 52.349 0 20.324-3.9746 37.774-11.9142 52.3498-7.9396 14.5758-19.1739 25.7545-33.7219 33.5342-14.548 7.7806-31.7202 11.67-51.5358 11.67Zm-22.1045-44.9657h20.1987c9.654 0 17.8905-1.5563 24.7192-4.668 6.8286-3.1126 12.0291-8.4788 15.6207-16.1005 3.5915-7.6217 5.3824-18.2276 5.3824-31.8198 0-13.5913-1.8292-24.1972-5.4782-31.8189-3.649-7.6216-8.9836-12.9878-16.0038-16.1005-7.0202-3.1117-15.6111-4.668-25.7727-4.668h-18.6663v105.1757Zm248.8391-89.171c-.5076-6.3507-2.8732-11.305-7.0968-14.8612-4.2236-3.557-10.6213-5.3355-19.2026-5.3355-8.1887 0-14.1553 1.3973-17.9097 4.192-3.7447 2.7947-5.6506 6.3517-5.7177 10.6701-.249 4.6364 1.7623 8.4157 6.053 11.3368 4.2906 2.921 11.033 5.3671 20.2465 7.3353l16.0038 3.4296c21.5299 4.6364 37.0548 12.0512 46.5843 22.2454 9.5294 10.1931 14.3277 22.7213 14.3852 37.5825-.0575 19.2447-7.116 34.0264-21.1469 44.348-14.0404 10.3205-33.4058 15.4808-58.1154 15.4808-16.952 0-31.7394-2.5093-44.3432-7.5269-12.6134-5.0166-22.3919-12.7493-29.345-23.1973-6.9532-10.448-10.4681-23.8323-10.5256-40.155h50.3003c.4406 8.9548 3.5437 15.7663 9.29 20.4343 5.7465 4.669 13.7053 7.003 23.8573 7.003 8.5143 0 14.9503-1.5248 19.2984-4.5733 4.3481-3.0484 6.5605-6.9866 6.618-11.8136-.0575-4.4458-2.2507-8.1446-6.5701-11.0983-4.3194-2.9536-11.9143-5.6046-22.775-7.955l-19.4325-4.192c-17.2775-3.7466-30.8774-10.0188-40.8187-18.8147-9.9413-8.7968-14.8832-20.8164-14.8162-36.0587-.067-12.3855 3.2563-23.23 9.9605-32.5343 6.6946-9.3044 16.0038-16.5602 27.9084-21.7684 11.9047-5.2082 25.5812-7.8122 41.0103-7.8122 15.7548 0 29.3738 2.6356 40.8762 7.907 11.4928 5.2724 20.371 12.6871 26.625 22.2454 6.254 9.5582 9.4146 20.7206 9.4817 33.4862h-50.6835Z"/>
</svg>