<?xml version="1.0" encoding="UTF-8" standalone="no"?>
<!DOCTYPE svg PUBLIC "-//W3C//DTD SVG 1.1//EN" "http://www.w3.org/Graphics/SVG/1.1/DTD/svg11.dtd">
<svg width="100%" height="100%" viewBox="0 0 2063 801" version="1.1" xmlns="http://www.w3.org/2000/svg" xmlns:xlink="http://www.w3.org/1999/xlink" xml:space="preserve" xmlns:serif="http://www.serif.com/" style="fill-rule:evenodd;clip-rule:evenodd;stroke-linejoin:round;stroke-miterlimit:2;">
    <g transform="matrix(1,0,0,1,-1926,-1)">
        <g id="chh_banner_light" transform="matrix(2.57788,0,0,1,1926,1.19166)">
            <rect x="0" y="0" width="800" height="800" style="fill:none;"/>
            <g transform="matrix(0.387916,0,0,1.02639,-19.3958,-71.1144)">
                <path d="M450,118C643.17,118 800,270.797 800,459C800,647.203 643.17,800 450,800C256.83,800 100,647.203 100,459C100,270.797 256.83,118 450,118ZM450,147.229C626.613,147.229 770,286.929 770,459C770,631.071 626.613,770.771 450,770.771C273.387,770.771 130,631.071 130,459C130,286.929 273.387,147.229 450,147.229Z" style="fill:rgb(13,121,242);"/>
            </g>
            <g transform="matrix(0.339427,0,0,0.898094,2.42448,-12.2251)">
                <path d="M450,118C643.17,118 800,270.797 800,459C800,647.203 643.17,800 450,800C256.83,800 100,647.203 100,459C100,270.797 256.83,118 450,118ZM450,151.404C624.247,151.404 765.714,289.233 765.714,459C765.714,628.767 624.247,766.596 450,766.596C275.753,766.596 134.286,628.767 134.286,459C134.286,289.233 275.753,151.404 450,151.404Z" style="fill:rgb(13,121,242);"/>
            </g>
            <g transform="matrix(0.137316,0,0,0.353984,75.7437,225.736)">
                <path d="M575,109.441C739.829,109.441 703.994,166.753 771.197,167.756C780.436,167.894 802.516,168.129 824.866,153.854C941.071,79.636 1099.71,4.972 1126.79,44.993C1151.73,81.85 1132.24,190.993 1095.39,277.47C1066.81,344.555 1023.01,388.489 1011.68,435.01C999.598,484.599 1011.04,560.562 1008.05,624.826C1004.98,690.871 997.455,731.556 966.52,772.116C913.675,841.403 771.995,861.513 740.59,957.872C728.302,995.575 702.731,1098.97 671.464,1141.67C626.662,1202.87 575,1198.47 575,1198.47C575,1198.47 523.338,1202.87 478.536,1141.67C447.269,1098.97 421.698,995.575 409.41,957.872C378.005,861.513 236.325,841.403 183.48,772.116C152.545,731.556 145.02,690.871 141.948,624.826C138.959,560.562 150.402,484.599 138.32,435.01C126.985,388.489 83.193,344.555 54.607,277.47C17.757,190.993 -1.726,81.85 23.213,44.993C50.292,4.972 208.929,79.636 325.134,153.854C347.484,168.129 369.564,167.894 378.803,167.756C446.006,166.753 410.171,109.441 575,109.441Z" style="fill:rgb(0,166,61);"/>
            </g>
            <g transform="matrix(0.371521,0,0,0.957736,-355.557,0.18444)">
                <path d="M1983.32,172.676L1927.22,172.676C1926.42,163.392 1923.06,155.899 1917.12,150.196C1911.19,144.493 1902.88,141.641 1892.2,141.641C1878.28,141.641 1867.63,146.631 1860.27,156.612C1852.91,166.592 1849.23,180.435 1849.23,198.141C1849.23,216.842 1852.96,230.934 1860.42,240.417C1867.88,249.899 1878.34,254.641 1891.81,254.641C1901.95,254.641 1910.04,252.104 1916.08,247.031C1922.11,241.958 1925.83,235.078 1927.22,226.391L1983.32,226.789C1982.66,235.41 1980.24,244.18 1976.06,253.099C1971.88,262.018 1965.96,270.241 1958.3,277.768C1950.64,285.295 1941.18,291.346 1929.9,295.922C1918.63,300.497 1905.53,302.785 1890.61,302.785C1871.91,302.785 1855.15,298.773 1840.33,290.749C1825.51,282.725 1813.8,270.921 1805.22,255.337C1796.63,239.753 1792.33,220.688 1792.33,198.141C1792.33,175.462 1796.71,156.346 1805.47,140.796C1814.22,125.245 1826.02,113.474 1840.88,105.483C1855.73,97.492 1872.31,93.497 1890.61,93.497C1907.72,93.497 1922.99,96.581 1936.42,102.748C1949.85,108.915 1960.66,117.901 1968.85,129.705C1977.04,141.509 1981.86,155.832 1983.32,172.676Z" style="fill:rgb(13,121,242);fill-rule:nonzero;"/>
                <path d="M2008.39,300L2008.39,96.282L2063.69,96.282L2063.69,175.859L2136.9,175.859L2136.9,96.282L2192.21,96.282L2192.21,300L2136.9,300L2136.9,220.423L2063.69,220.423L2063.69,300L2008.39,300Z" style="fill:rgb(13,121,242);fill-rule:nonzero;"/>
                <path d="M2339.03,96.282L2394.34,96.282L2394.34,226.789C2394.34,242.306 2390.64,255.719 2383.25,267.025C2375.85,278.332 2365.56,287.052 2352.36,293.186C2339.16,299.32 2323.84,302.387 2306.4,302.387C2288.83,302.387 2273.45,299.32 2260.25,293.186C2247.05,287.052 2236.79,278.332 2229.46,267.025C2222.14,255.719 2218.47,242.306 2218.47,226.789L2218.47,96.282L2273.78,96.282L2273.78,222.014C2273.78,231.497 2276.84,239.306 2282.98,245.44C2289.11,251.574 2296.92,254.641 2306.4,254.641C2315.89,254.641 2323.7,251.574 2329.83,245.44C2335.96,239.306 2339.03,231.497 2339.03,222.014L2339.03,96.282Z" style="fill:rgb(13,121,242);fill-rule:nonzero;"/>
                <path d="M2420.6,300L2420.6,96.282L2475.9,96.282L2475.9,255.437L2558.27,255.437L2558.27,300L2420.6,300Z" style="fill:rgb(13,121,242);fill-rule:nonzero;"/>
                <path d="M2633.47,300L2573.78,300L2641.03,96.282L2716.62,96.282L2783.87,300L2724.18,300L2712.45,261.007L2645.2,261.007L2633.47,300ZM2657.74,219.627L2699.91,219.627L2679.62,152.384L2678.03,152.384L2657.74,219.627Z" style="fill:rgb(13,121,242);fill-rule:nonzero;"/>
                <path d="M1793.13,516.425L1793.13,312.707L1848.44,312.707L1848.44,392.284L1921.65,392.284L1921.65,312.707L1976.95,312.707L1976.95,516.425L1921.65,516.425L1921.65,436.847L1848.44,436.847L1848.44,516.425L1793.13,516.425Z" style="fill:rgb(13,121,242);fill-rule:nonzero;"/>
                <path d="M2200.57,414.566C2200.57,437.245 2196.16,456.36 2187.34,471.911C2178.52,487.462 2166.61,499.233 2151.63,507.224C2136.64,515.214 2119.93,519.21 2101.49,519.21C2082.92,519.21 2066.16,515.181 2051.21,507.124C2036.26,499.067 2024.38,487.263 2015.6,471.712C2006.81,456.161 2002.42,437.113 2002.42,414.566C2002.42,391.886 2006.81,372.771 2015.6,357.22C2024.38,341.67 2036.26,329.899 2051.21,321.908C2066.16,313.917 2082.92,309.922 2101.49,309.922C2119.93,309.922 2136.64,313.917 2151.63,321.908C2166.61,329.899 2178.52,341.67 2187.34,357.22C2196.16,372.771 2200.57,391.886 2200.57,414.566ZM2143.67,414.566C2143.67,396.263 2140.07,382.271 2132.88,372.589C2125.68,362.907 2115.22,358.066 2101.49,358.066C2087.76,358.066 2077.3,362.907 2070.11,372.589C2062.91,382.271 2059.32,396.263 2059.32,414.566C2059.32,432.869 2062.91,446.861 2070.11,456.543C2077.3,466.225 2087.76,471.066 2101.49,471.066C2115.22,471.066 2125.68,466.225 2132.88,456.543C2140.07,446.861 2143.67,432.869 2143.67,414.566Z" style="fill:rgb(13,121,242);fill-rule:nonzero;"/>
                <path d="M2226.03,312.707L2294.87,312.707L2342.21,428.094L2344.6,428.094L2391.95,312.707L2460.78,312.707L2460.78,516.425L2406.67,516.425L2406.67,398.65L2405.08,398.65L2359.72,514.833L2327.09,514.833L2281.74,397.855L2280.14,397.855L2280.14,516.425L2226.03,516.425L2226.03,312.707Z" style="fill:rgb(13,121,242);fill-rule:nonzero;"/>
                <path d="M2539.96,516.425L2480.28,516.425L2547.52,312.707L2623.12,312.707L2690.36,516.425L2630.68,516.425L2618.94,477.432L2551.7,477.432L2539.96,516.425ZM2564.23,436.052L2606.41,436.052L2586.12,368.809L2584.53,368.809L2564.23,436.052Z" style="fill:rgb(13,121,242);fill-rule:nonzero;"/>
                <path d="M1793.13,732.849L1793.13,529.131L1848.44,529.131L1848.44,608.709L1921.65,608.709L1921.65,529.131L1976.95,529.131L1976.95,732.849L1921.65,732.849L1921.65,653.272L1848.44,653.272L1848.44,732.849L1793.13,732.849Z" style="fill:rgb(13,121,242);fill-rule:nonzero;"/>
                <path d="M2200.57,630.99C2200.57,653.67 2196.16,672.785 2187.34,688.336C2178.52,703.887 2166.61,715.657 2151.63,723.648C2136.64,731.639 2119.93,735.635 2101.49,735.635C2082.92,735.635 2066.16,731.606 2051.21,723.549C2036.26,715.492 2024.38,703.688 2015.6,688.137C2006.81,672.586 2002.42,653.537 2002.42,630.99C2002.42,608.311 2006.81,589.196 2015.6,573.645C2024.38,558.094 2036.26,546.323 2051.21,538.333C2066.16,530.342 2082.92,526.346 2101.49,526.346C2119.93,526.346 2136.64,530.342 2151.63,538.333C2166.61,546.323 2178.52,558.094 2187.34,573.645C2196.16,589.196 2200.57,608.311 2200.57,630.99ZM2143.67,630.99C2143.67,612.688 2140.07,598.695 2132.88,589.013C2125.68,579.331 2115.22,574.491 2101.49,574.491C2087.76,574.491 2077.3,579.331 2070.11,589.013C2062.91,598.695 2059.32,612.688 2059.32,630.99C2059.32,649.293 2062.91,663.286 2070.11,672.967C2077.3,682.649 2087.76,687.49 2101.49,687.49C2115.22,687.49 2125.68,682.649 2132.88,672.967C2140.07,663.286 2143.67,649.293 2143.67,630.99Z" style="fill:rgb(13,121,242);fill-rule:nonzero;"/>
                <path d="M2346.59,529.131L2401.9,529.131L2401.9,659.638C2401.9,675.156 2398.2,688.568 2390.8,699.875C2383.41,711.181 2373.12,719.901 2359.92,726.036C2346.72,732.17 2331.4,735.237 2313.96,735.237C2296.39,735.237 2281.01,732.17 2267.81,726.036C2254.61,719.901 2244.35,711.181 2237.02,699.875C2229.7,688.568 2226.03,675.156 2226.03,659.638L2226.03,529.131L2281.34,529.131L2281.34,654.864C2281.34,664.347 2284.4,672.155 2290.54,678.289C2296.67,684.423 2304.48,687.49 2313.96,687.49C2323.45,687.49 2331.26,684.423 2337.39,678.289C2343.52,672.155 2346.59,664.347 2346.59,654.864L2346.59,529.131Z" style="fill:rgb(13,121,242);fill-rule:nonzero;"/>
                <path d="M2604.42,529.131L2604.42,732.849L2558.27,732.849L2484.66,625.818L2483.46,625.818L2483.46,732.849L2428.16,732.849L2428.16,529.131L2475.11,529.131L2547.52,635.765L2549.11,635.765L2549.11,529.131L2604.42,529.131Z" style="fill:rgb(13,121,242);fill-rule:nonzero;"/>
                <path d="M2709.07,732.849L2630.68,732.849L2630.68,529.131L2708.27,529.131C2729.22,529.131 2747.35,533.193 2762.63,541.317C2777.92,549.44 2789.72,561.112 2798.04,576.331C2806.37,591.55 2810.53,609.77 2810.53,630.99C2810.53,652.211 2806.38,670.431 2798.09,685.65C2789.8,700.869 2778.07,712.541 2762.88,720.664C2747.69,728.788 2729.76,732.849 2709.07,732.849ZM2685.99,685.899L2707.08,685.899C2717.16,685.899 2725.76,684.274 2732.89,681.025C2740.02,677.775 2745.45,672.172 2749.2,664.214C2752.95,656.256 2754.82,645.182 2754.82,630.99C2754.82,616.799 2752.91,605.725 2749.1,597.767C2745.29,589.809 2739.72,584.206 2732.39,580.956C2725.06,577.707 2716.09,576.082 2705.48,576.082L2685.99,576.082L2685.99,685.899Z" style="fill:rgb(13,121,242);fill-rule:nonzero;"/>
                <path d="M2945.81,592.793C2945.28,586.162 2942.81,580.989 2938.4,577.276C2933.99,573.562 2927.31,571.705 2918.35,571.705C2909.8,571.705 2903.57,573.164 2899.65,576.082C2895.74,579 2893.75,582.714 2893.68,587.223C2893.42,592.064 2895.52,596.01 2900,599.06C2904.48,602.11 2911.52,604.664 2921.14,606.719L2937.85,610.3C2960.33,615.141 2976.54,622.883 2986.49,633.527C2996.44,644.17 3001.45,657.251 3001.51,672.768C3001.45,692.862 2994.08,708.296 2979.43,719.073C2964.77,729.849 2944.55,735.237 2918.75,735.237C2901.05,735.237 2885.61,732.617 2872.45,727.378C2859.28,722.14 2849.07,714.066 2841.81,703.157C2834.55,692.248 2830.88,678.273 2830.82,661.23L2883.34,661.23C2883.8,670.58 2887.04,677.692 2893.04,682.566C2899.04,687.441 2907.35,689.878 2917.95,689.878C2926.84,689.878 2933.56,688.286 2938.1,685.103C2942.64,681.92 2944.95,677.808 2945.01,672.768C2944.95,668.126 2942.66,664.264 2938.15,661.18C2933.64,658.096 2925.71,655.328 2914.37,652.874L2894.08,648.497C2876.04,644.585 2861.84,638.036 2851.46,628.852C2841.08,619.667 2835.92,607.117 2835.99,591.202C2835.92,578.27 2839.39,566.947 2846.39,557.232C2853.38,547.517 2863.1,539.941 2875.53,534.503C2887.96,529.065 2902.24,526.346 2918.35,526.346C2934.8,526.346 2949.02,529.098 2961.03,534.602C2973.03,540.107 2982.3,547.849 2988.83,557.829C2995.36,567.809 2998.66,579.464 2998.73,592.793L2945.81,592.793Z" style="fill:rgb(13,121,242);fill-rule:nonzero;"/>
            </g>
        </g>
    </g>
</svg>
