<svg fill="currentColor" xmlns="http://www.w3.org/2000/svg" xml:space="preserve" fill-rule="evenodd" stroke-linejoin="round" stroke-miterlimit="2" clip-rule="evenodd" viewBox="0 0 800 800">
  <path d="M400 49.9996c193.17 0 350 156.8293 350 349.999 0 193.1697-156.83 349.999-350 349.999S50 593.1683 50 399.9986c0-193.1697 156.83-349.999 350-349.999ZM400 80c176.613 0 320 143.3867 320 319.9986 0 176.612-143.387 319.9986-320 319.9986S80 576.6106 80 399.9986C80 223.3866 223.387 80 400 80Z"/>
  <path d="M400 93.75c169.0237 0 306.25 137.226 306.25 306.25S569.0237 706.2501 400 706.2501c-169.0238 0-306.25-137.226-306.25-306.25S230.9762 93.75 400 93.75Zm0 30c152.4661 0 276.2498 123.7833 276.2498 276.25 0 152.4668-123.7837 276.2502-276.2498 276.2502-152.4661 0-276.2498-123.7834-276.2498-276.2502 0-152.4667 123.7837-276.25 276.2498-276.25Z"/>
  <path d="M398.9486 264.4631c58.3178 0 45.6391 20.2774 69.416 20.6323 3.2689.0488 11.081.132 18.9886-4.9186 41.1142-26.259 97.242-52.6757 106.8231-38.516 8.824 13.0404 1.9283 51.656-11.1096 82.2523-10.1118 23.7352-25.6086 39.2794-29.6172 55.739-4.2747 17.5449-.2265 44.4212-1.2843 67.1583-1.0862 23.3673-3.7486 37.762-14.6937 52.1124-18.697 24.5143-68.8245 31.6294-79.9358 65.722-4.3476 13.3396-13.3949 49.9216-24.4574 65.0292-15.8513 21.653-34.1297 20.0963-34.1297 20.0963s-18.2784 1.5567-34.1297-20.0963c-11.0625-15.1076-20.1098-51.6896-24.4574-65.0292-11.1113-34.0926-61.2388-41.2077-79.9358-65.722-10.945-14.3504-13.6075-28.7451-14.6944-52.1124-1.0575-22.737 2.9911-49.6134-1.2836-67.1584-4.0104-16.4595-19.5044-32.0037-29.6183-55.7389-13.0378-30.5962-19.931-69.212-11.1075-82.2522 9.5808-14.1598 65.7079 12.257 106.8221 38.5159 7.9076 5.0506 15.7197 4.9674 18.9885 4.9186 23.777-.3549 11.0983-20.6323 69.4161-20.6323Z"/>
</svg>